<svg width="269" height="294" viewBox="0 0 269 294" fill="none" xmlns="http://www.w3.org/2000/svg">
<rect x="112.646" width="47.7692" height="138" rx="23.8846" fill="#85D3C0"/>
<rect x="205" y="45.646" width="46.7077" height="138" rx="23.3538" transform="rotate(90 205 45.646)" fill="#85D3C0"/>
<path d="M109.918 44.5075C122.21 46.2592 130.183 55.2229 135.794 64.8629C138.9 70.2893 141.519 76.0707 145.589 80.6973C148.61 84.1502 152.148 87.0488 156.033 89.6178C158.626 91.3179 161.373 92.8293 164.815 93.3185C162.933 93.5923 161.1 93.498 159.388 93.1788C154.292 92.1286 149.926 89.8425 145.941 87.0848C141.977 84.3141 138.742 80.5667 136.229 76.3863C133.773 72.3308 131.705 67.9266 129.297 63.9109C124.484 55.8576 118.643 48.7319 109.918 44.5075Z" fill="white"/>
<path d="M139.101 64.2936C139.101 64.2936 124.521 51.4635 131.309 34.244C136.905 20.05 144.876 17.3227 144.477 6.03955C150.252 11.1407 160.735 24.4133 155.892 40.1236C151.154 55.494 139.101 64.2936 139.101 64.2936Z" fill="white"/>
<path d="M144.477 6.03955C151.475 14.5774 151.578 24.9928 148.133 35.3419C145.066 45.0675 139.64 53.6101 138.382 63.78C138.231 62.8979 137.937 61.7371 137.917 60.8277C137.844 59.2473 137.965 57.6109 138.189 56.0371C139.287 48.5499 142.609 41.3907 144.87 34.3436C148.283 24.1618 148.662 15.8135 144.477 6.03955Z" fill="#85D3C0"/>
<path d="M134.593 75.83C134.593 75.83 119.826 52.7869 103.08 60.1279C89.2757 66.1791 87.0559 71.3004 72.5592 67.7444C77.8083 73.2352 89.5403 85.5249 107.306 83.6619C123.131 82.0018 134.593 75.83 134.593 75.83Z" fill="white"/>
<path d="M72.3332 67.9561C79.8334 72.1433 88.6984 72.9605 96.8826 70.9978C98.3204 70.7259 100.076 70.1172 101.483 69.7138C112.393 65.8694 126.208 67.3543 134.582 75.8445C125.103 71.3193 113.838 70.7079 103.938 73.8898C103.46 74.0397 102.481 74.3265 101.996 74.4617C101.617 74.5684 99.7638 75.0946 99.4227 75.1801C98.2162 75.3949 96.9303 75.6637 95.7175 75.8218C94.9843 75.8589 93.2086 76.0519 92.4914 76.0536C91.9568 76.0415 90.8659 76.0209 90.3299 76.0075C83.6958 75.6861 76.6959 73.1049 72.3332 67.9561Z" fill="#85D3C0"/>
<path d="M11.9762 249.08H13.4822L16.5302 257H14.9342L14.3162 255.29H11.1482L10.5182 257H8.91616L11.9762 249.08ZM11.6402 253.964H13.8242L12.7382 250.892H12.7202L11.6402 253.964ZM23.0849 248.936C23.5609 248.936 23.9749 248.99 24.3269 249.098C24.6829 249.202 24.9649 249.314 25.1729 249.434C25.3849 249.554 25.5129 249.632 25.5569 249.668L24.8249 250.886C24.7609 250.834 24.6509 250.762 24.4949 250.67C24.3429 250.574 24.1589 250.49 23.9429 250.418C23.7269 250.342 23.4929 250.304 23.2409 250.304C22.8769 250.304 22.5849 250.374 22.3649 250.514C22.1489 250.65 22.0409 250.848 22.0409 251.108C22.0409 251.284 22.0989 251.442 22.2149 251.582C22.3309 251.718 22.5009 251.846 22.7249 251.966C22.9529 252.086 23.2309 252.212 23.5589 252.344C23.8469 252.456 24.1209 252.586 24.3809 252.734C24.6449 252.882 24.8789 253.056 25.0829 253.256C25.2909 253.456 25.4549 253.688 25.5749 253.952C25.6989 254.216 25.7609 254.518 25.7609 254.858C25.7609 255.238 25.6829 255.57 25.5269 255.854C25.3749 256.138 25.1629 256.376 24.8909 256.568C24.6229 256.76 24.3149 256.904 23.9669 257C23.6189 257.096 23.2529 257.144 22.8689 257.144C22.3489 257.144 21.8809 257.084 21.4649 256.964C21.0529 256.84 20.7189 256.708 20.4629 256.568C20.2069 256.428 20.0569 256.338 20.0129 256.298L20.7809 255.032C20.8289 255.068 20.9189 255.126 21.0509 255.206C21.1869 255.286 21.3509 255.368 21.5429 255.452C21.7389 255.536 21.9509 255.608 22.1789 255.668C22.4109 255.728 22.6469 255.758 22.8869 255.758C23.3189 255.758 23.6449 255.668 23.8649 255.488C24.0849 255.308 24.1949 255.074 24.1949 254.786C24.1949 254.57 24.1249 254.38 23.9849 254.216C23.8449 254.052 23.6469 253.902 23.3909 253.766C23.1389 253.626 22.8369 253.484 22.4849 253.34C22.1329 253.192 21.8049 253.02 21.5009 252.824C21.2009 252.624 20.9589 252.38 20.7749 252.092C20.5909 251.8 20.4989 251.442 20.4989 251.018C20.4989 250.598 20.6169 250.232 20.8529 249.92C21.0929 249.608 21.4089 249.366 21.8009 249.194C22.1969 249.022 22.6249 248.936 23.0849 248.936ZM29.2391 255.662L30.6971 252.074H32.2031L28.8371 259.496H27.3071L28.4411 257L26.3951 252.074H27.9191L29.2391 255.662ZM39.2968 251.93C39.6648 251.93 39.9848 252.008 40.2568 252.164C40.5328 252.32 40.7468 252.56 40.8988 252.884C41.0548 253.204 41.1328 253.616 41.1328 254.12V257H39.6328V254.366C39.6328 253.95 39.5708 253.626 39.4468 253.394C39.3268 253.162 39.0968 253.046 38.7568 253.046C38.5648 253.046 38.3888 253.098 38.2288 253.202C38.0688 253.302 37.9408 253.45 37.8448 253.646C37.7528 253.842 37.7068 254.082 37.7068 254.366V257H36.3028V254.366C36.3028 253.95 36.2328 253.626 36.0928 253.394C35.9528 253.162 35.7308 253.046 35.4268 253.046C35.2308 253.046 35.0528 253.096 34.8928 253.196C34.7368 253.296 34.6128 253.444 34.5208 253.64C34.4328 253.832 34.3888 254.074 34.3888 254.366V257H32.8768V252.074H34.3888V252.794C34.4328 252.67 34.5328 252.542 34.6888 252.41C34.8488 252.278 35.0468 252.166 35.2828 252.074C35.5188 251.978 35.7728 251.93 36.0448 251.93C36.3408 251.93 36.5868 251.98 36.7828 252.08C36.9788 252.18 37.1368 252.308 37.2568 252.464C37.3808 252.616 37.4748 252.776 37.5388 252.944C37.5948 252.788 37.7048 252.632 37.8688 252.476C38.0328 252.32 38.2388 252.19 38.4868 252.086C38.7348 251.982 39.0048 251.93 39.2968 251.93ZM43.8453 259.496H42.3333V252.074H43.8633V252.872C43.9113 252.756 44.0153 252.624 44.1753 252.476C44.3353 252.328 44.5433 252.2 44.7993 252.092C45.0593 251.984 45.3553 251.93 45.6873 251.93C46.1553 251.93 46.5633 252.044 46.9113 252.272C47.2593 252.5 47.5273 252.812 47.7153 253.208C47.9073 253.6 48.0033 254.044 48.0033 254.54C48.0033 255.036 47.9033 255.482 47.7033 255.878C47.5033 256.27 47.2253 256.58 46.8693 256.808C46.5133 257.032 46.0993 257.144 45.6273 257.144C45.2713 257.144 44.9653 257.08 44.7093 256.952C44.4533 256.824 44.2533 256.68 44.1093 256.52C43.9653 256.36 43.8773 256.234 43.8453 256.142V259.496ZM46.5093 254.54C46.5093 254.264 46.4493 254.022 46.3293 253.814C46.2133 253.602 46.0573 253.438 45.8613 253.322C45.6653 253.202 45.4473 253.142 45.2073 253.142C44.9553 253.142 44.7273 253.202 44.5233 253.322C44.3193 253.442 44.1573 253.608 44.0373 253.82C43.9213 254.028 43.8633 254.268 43.8633 254.54C43.8633 254.812 43.9213 255.054 44.0373 255.266C44.1573 255.474 44.3193 255.638 44.5233 255.758C44.7273 255.874 44.9553 255.932 45.2073 255.932C45.4473 255.932 45.6653 255.874 45.8613 255.758C46.0573 255.642 46.2133 255.48 46.3293 255.272C46.4493 255.06 46.5093 254.816 46.5093 254.54ZM48.5695 252.074H49.4575V250.052H50.9695V252.074H52.1335V253.34H50.9695V255.122C50.9695 255.358 51.0075 255.542 51.0835 255.674C51.1595 255.802 51.2795 255.866 51.4435 255.866C51.5675 255.866 51.6695 255.842 51.7495 255.794C51.8295 255.742 51.8775 255.706 51.8935 255.686L52.4335 256.778C52.4095 256.802 52.3315 256.844 52.1995 256.904C52.0715 256.964 51.9055 257.018 51.7015 257.066C51.5015 257.118 51.2755 257.144 51.0235 257.144C50.5715 257.144 50.1975 257.014 49.9015 256.754C49.6055 256.49 49.4575 256.082 49.4575 255.53V253.34H48.5695V252.074ZM55.6145 257.144C55.0905 257.144 54.6225 257.032 54.2105 256.808C53.8025 256.584 53.4825 256.278 53.2505 255.89C53.0185 255.498 52.9025 255.052 52.9025 254.552C52.9025 254.052 53.0185 253.606 53.2505 253.214C53.4825 252.818 53.8025 252.506 54.2105 252.278C54.6225 252.046 55.0905 251.93 55.6145 251.93C56.1425 251.93 56.6085 252.046 57.0125 252.278C57.4165 252.506 57.7325 252.818 57.9605 253.214C58.1885 253.606 58.3025 254.052 58.3025 254.552C58.3025 255.052 58.1885 255.498 57.9605 255.89C57.7325 256.278 57.4165 256.584 57.0125 256.808C56.6085 257.032 56.1425 257.144 55.6145 257.144ZM55.6145 255.878C55.8665 255.878 56.0845 255.822 56.2685 255.71C56.4565 255.594 56.6005 255.436 56.7005 255.236C56.8045 255.032 56.8565 254.802 56.8565 254.546C56.8565 254.29 56.8045 254.06 56.7005 253.856C56.6005 253.652 56.4565 253.492 56.2685 253.376C56.0845 253.256 55.8665 253.196 55.6145 253.196C55.3625 253.196 55.1425 253.256 54.9545 253.376C54.7705 253.492 54.6265 253.652 54.5225 253.856C54.4185 254.06 54.3665 254.29 54.3665 254.546C54.3665 254.802 54.4185 255.032 54.5225 255.236C54.6265 255.436 54.7705 255.594 54.9545 255.71C55.1425 255.822 55.3625 255.878 55.6145 255.878ZM65.7694 251.93C66.1374 251.93 66.4574 252.008 66.7294 252.164C67.0054 252.32 67.2194 252.56 67.3714 252.884C67.5274 253.204 67.6054 253.616 67.6054 254.12V257H66.1054V254.366C66.1054 253.95 66.0434 253.626 65.9194 253.394C65.7994 253.162 65.5694 253.046 65.2294 253.046C65.0374 253.046 64.8614 253.098 64.7014 253.202C64.5414 253.302 64.4134 253.45 64.3174 253.646C64.2254 253.842 64.1794 254.082 64.1794 254.366V257H62.7754V254.366C62.7754 253.95 62.7054 253.626 62.5654 253.394C62.4254 253.162 62.2034 253.046 61.8994 253.046C61.7034 253.046 61.5254 253.096 61.3654 253.196C61.2094 253.296 61.0854 253.444 60.9934 253.64C60.9054 253.832 60.8614 254.074 60.8614 254.366V257H59.3494V252.074H60.8614V252.794C60.9054 252.67 61.0054 252.542 61.1614 252.41C61.3214 252.278 61.5194 252.166 61.7554 252.074C61.9914 251.978 62.2454 251.93 62.5174 251.93C62.8134 251.93 63.0594 251.98 63.2554 252.08C63.4514 252.18 63.6094 252.308 63.7294 252.464C63.8534 252.616 63.9474 252.776 64.0114 252.944C64.0674 252.788 64.1774 252.632 64.3414 252.476C64.5054 252.32 64.7114 252.19 64.9594 252.086C65.2074 251.982 65.4774 251.93 65.7694 251.93ZM70.8759 251.93C71.1719 251.93 71.4459 251.958 71.6979 252.014C71.9499 252.066 72.1619 252.126 72.3339 252.194C72.5099 252.262 72.6259 252.32 72.6819 252.368L72.1599 253.286C72.0799 253.222 71.9359 253.146 71.7279 253.058C71.5239 252.97 71.2959 252.926 71.0439 252.926C70.8159 252.926 70.6239 252.966 70.4679 253.046C70.3119 253.122 70.2339 253.238 70.2339 253.394C70.2339 253.55 70.3179 253.674 70.4859 253.766C70.6539 253.858 70.8879 253.938 71.1879 254.006C71.4399 254.058 71.6879 254.138 71.9319 254.246C72.1759 254.35 72.3779 254.502 72.5379 254.702C72.6979 254.898 72.7779 255.16 72.7779 255.488C72.7779 255.812 72.7079 256.082 72.5679 256.298C72.4319 256.51 72.2499 256.678 72.0219 256.802C71.7939 256.926 71.5439 257.014 71.2719 257.066C70.9999 257.118 70.7299 257.144 70.4619 257.144C70.1139 257.144 69.8079 257.11 69.5439 257.042C69.2799 256.978 69.0619 256.904 68.8899 256.82C68.7219 256.732 68.6019 256.658 68.5299 256.598L69.0519 255.578C69.1559 255.67 69.3259 255.772 69.5619 255.884C69.8019 255.992 70.0599 256.046 70.3359 256.046C70.6239 256.046 70.8499 255.996 71.0139 255.896C71.1819 255.796 71.2659 255.662 71.2659 255.494C71.2659 255.37 71.2259 255.27 71.1459 255.194C71.0659 255.114 70.9559 255.048 70.8159 254.996C70.6759 254.944 70.5119 254.898 70.3239 254.858C70.1519 254.822 69.9759 254.77 69.7959 254.702C69.6159 254.63 69.4479 254.536 69.2919 254.42C69.1359 254.304 69.0099 254.16 68.9139 253.988C68.8179 253.812 68.7699 253.602 68.7699 253.358C68.7699 253.046 68.8699 252.786 69.0699 252.578C69.2699 252.366 69.5299 252.206 69.8499 252.098C70.1699 251.986 70.5119 251.93 70.8759 251.93ZM78.4984 250.406H76.5124V249.08H81.9784V250.406H79.9984V257H78.4984V250.406ZM84.0326 257H82.5086V252.074H84.0326V252.872H84.0026C84.0306 252.776 84.1066 252.654 84.2306 252.506C84.3586 252.358 84.5346 252.226 84.7586 252.11C84.9826 251.99 85.2526 251.93 85.5686 251.93C85.7966 251.93 86.0026 251.964 86.1866 252.032C86.3746 252.096 86.5086 252.16 86.5886 252.224L85.9886 253.472C85.9366 253.408 85.8386 253.342 85.6946 253.274C85.5546 253.206 85.3786 253.172 85.1666 253.172C84.9146 253.172 84.7046 253.242 84.5366 253.382C84.3686 253.518 84.2426 253.686 84.1586 253.886C84.0746 254.082 84.0326 254.266 84.0326 254.438V257ZM90.9163 257V256.142C90.8803 256.23 90.7883 256.354 90.6403 256.514C90.4923 256.674 90.2923 256.82 90.0403 256.952C89.7923 257.08 89.5003 257.144 89.1643 257.144C88.6923 257.144 88.2743 257.032 87.9103 256.808C87.5463 256.58 87.2603 256.27 87.0523 255.878C86.8483 255.482 86.7463 255.036 86.7463 254.54C86.7463 254.044 86.8483 253.6 87.0523 253.208C87.2603 252.812 87.5463 252.5 87.9103 252.272C88.2743 252.044 88.6923 251.93 89.1643 251.93C89.4923 251.93 89.7763 251.986 90.0163 252.098C90.2603 252.206 90.4563 252.334 90.6043 252.482C90.7563 252.626 90.8543 252.756 90.8983 252.872V252.074H92.4103V257H90.9163ZM88.2403 254.54C88.2403 254.816 88.3023 255.06 88.4263 255.272C88.5503 255.48 88.7143 255.642 88.9183 255.758C89.1223 255.874 89.3443 255.932 89.5843 255.932C89.8363 255.932 90.0603 255.874 90.2563 255.758C90.4523 255.638 90.6063 255.474 90.7183 255.266C90.8343 255.054 90.8923 254.812 90.8923 254.54C90.8923 254.268 90.8343 254.028 90.7183 253.82C90.6063 253.608 90.4523 253.442 90.2563 253.322C90.0603 253.202 89.8363 253.142 89.5843 253.142C89.3443 253.142 89.1223 253.202 88.9183 253.322C88.7143 253.438 88.5503 253.602 88.4263 253.814C88.3023 254.022 88.2403 254.264 88.2403 254.54ZM96.1994 255.932C96.4594 255.932 96.6714 255.888 96.8354 255.8C96.9994 255.712 97.1074 255.646 97.1594 255.602L97.8674 256.652C97.8114 256.696 97.7074 256.758 97.5554 256.838C97.4034 256.918 97.2094 256.988 96.9734 257.048C96.7414 257.112 96.4754 257.144 96.1754 257.144C95.6554 257.144 95.1894 257.04 94.7774 256.832C94.3654 256.62 94.0394 256.32 93.7994 255.932C93.5634 255.54 93.4454 255.074 93.4454 254.534C93.4454 253.99 93.5634 253.524 93.7994 253.136C94.0394 252.748 94.3654 252.45 94.7774 252.242C95.1894 252.034 95.6554 251.93 96.1754 251.93C96.4714 251.93 96.7334 251.962 96.9614 252.026C97.1934 252.09 97.3874 252.164 97.5434 252.248C97.6994 252.328 97.8074 252.394 97.8674 252.446L97.1414 253.502C97.1134 253.47 97.0594 253.426 96.9794 253.37C96.8994 253.314 96.7934 253.262 96.6614 253.214C96.5334 253.166 96.3794 253.142 96.1994 253.142C95.9794 253.142 95.7694 253.2 95.5694 253.316C95.3734 253.432 95.2134 253.594 95.0894 253.802C94.9654 254.01 94.9034 254.254 94.9034 254.534C94.9034 254.814 94.9654 255.06 95.0894 255.272C95.2134 255.48 95.3734 255.642 95.5694 255.758C95.7694 255.874 95.9794 255.932 96.1994 255.932ZM101.952 252.074H103.704L101.298 254.426L103.92 257H102.126L100.08 254.942V257H98.5559V248.744H100.08V253.88L101.952 252.074ZM105.401 254.876C105.413 255.1 105.473 255.3 105.581 255.476C105.689 255.652 105.845 255.79 106.049 255.89C106.257 255.99 106.505 256.04 106.793 256.04C107.053 256.04 107.281 256.008 107.477 255.944C107.677 255.88 107.845 255.802 107.981 255.71C108.121 255.614 108.225 255.522 108.293 255.434L108.923 256.37C108.811 256.51 108.661 256.64 108.473 256.76C108.289 256.876 108.053 256.968 107.765 257.036C107.481 257.108 107.125 257.144 106.697 257.144C106.157 257.144 105.683 257.038 105.275 256.826C104.867 256.614 104.549 256.308 104.321 255.908C104.093 255.508 103.979 255.032 103.979 254.48C103.979 254 104.081 253.568 104.285 253.184C104.489 252.796 104.785 252.49 105.173 252.266C105.565 252.042 106.035 251.93 106.583 251.93C107.099 251.93 107.545 252.03 107.921 252.23C108.301 252.426 108.595 252.714 108.803 253.094C109.011 253.474 109.115 253.938 109.115 254.486C109.115 254.518 109.113 254.584 109.109 254.684C109.109 254.78 109.105 254.844 109.097 254.876H105.401ZM107.687 253.934C107.683 253.806 107.643 253.668 107.567 253.52C107.495 253.372 107.381 253.246 107.225 253.142C107.069 253.038 106.861 252.986 106.601 252.986C106.341 252.986 106.127 253.036 105.959 253.136C105.795 253.236 105.671 253.36 105.587 253.508C105.503 253.652 105.455 253.794 105.443 253.934H107.687ZM111.56 257H110.036V252.074H111.56V252.872H111.53C111.558 252.776 111.634 252.654 111.758 252.506C111.886 252.358 112.062 252.226 112.286 252.11C112.51 251.99 112.78 251.93 113.096 251.93C113.324 251.93 113.53 251.964 113.714 252.032C113.902 252.096 114.036 252.16 114.116 252.224L113.516 253.472C113.464 253.408 113.366 253.342 113.222 253.274C113.082 253.206 112.906 253.172 112.694 253.172C112.442 253.172 112.232 253.242 112.064 253.382C111.896 253.518 111.77 253.686 111.686 253.886C111.602 254.082 111.56 254.266 111.56 254.438V257ZM120.304 249.08H121.81L124.858 257H123.262L122.644 255.29H119.476L118.846 257H117.244L120.304 249.08ZM119.968 253.964H122.152L121.066 250.892H121.048L119.968 253.964ZM128.716 251.93C129.052 251.93 129.38 252 129.7 252.14C130.02 252.276 130.282 252.494 130.486 252.794C130.694 253.094 130.798 253.486 130.798 253.97V257H129.268V254.234C129.268 253.83 129.172 253.53 128.98 253.334C128.792 253.138 128.544 253.04 128.236 253.04C128.036 253.04 127.844 253.096 127.66 253.208C127.48 253.316 127.332 253.468 127.216 253.664C127.104 253.856 127.048 254.076 127.048 254.324V257H125.524V252.074H127.048V252.86C127.092 252.724 127.192 252.584 127.348 252.44C127.504 252.296 127.702 252.176 127.942 252.08C128.182 251.98 128.44 251.93 128.716 251.93ZM134.118 257.144C133.65 257.144 133.238 257.032 132.882 256.808C132.53 256.58 132.254 256.27 132.054 255.878C131.858 255.482 131.76 255.036 131.76 254.54C131.76 254.044 131.858 253.6 132.054 253.208C132.254 252.812 132.53 252.5 132.882 252.272C133.238 252.044 133.65 251.93 134.118 251.93C134.45 251.93 134.744 251.984 135 252.092C135.26 252.2 135.468 252.328 135.624 252.476C135.78 252.624 135.872 252.756 135.9 252.872V248.744H137.43V257H135.918V256.142C135.854 256.282 135.736 256.43 135.564 256.586C135.392 256.742 135.182 256.874 134.934 256.982C134.686 257.09 134.414 257.144 134.118 257.144ZM134.55 255.932C134.806 255.932 135.036 255.874 135.24 255.758C135.444 255.638 135.604 255.474 135.72 255.266C135.84 255.054 135.9 254.812 135.9 254.54C135.9 254.268 135.84 254.028 135.72 253.82C135.604 253.608 135.444 253.442 135.24 253.322C135.036 253.202 134.806 253.142 134.55 253.142C134.314 253.142 134.098 253.202 133.902 253.322C133.706 253.438 133.548 253.602 133.428 253.814C133.312 254.022 133.254 254.264 133.254 254.54C133.254 254.816 133.312 255.06 133.428 255.272C133.548 255.48 133.706 255.642 133.902 255.758C134.098 255.874 134.314 255.932 134.55 255.932ZM141.614 249.08H144.662C145.11 249.08 145.512 249.174 145.868 249.362C146.224 249.546 146.506 249.816 146.714 250.172C146.926 250.524 147.032 250.95 147.032 251.45C147.032 251.946 146.94 252.354 146.756 252.674C146.572 252.99 146.35 253.228 146.09 253.388C145.834 253.548 145.596 253.64 145.376 253.664L147.32 257H145.628L143.87 253.778H143.108V257H141.614V249.08ZM143.108 252.722H144.128C144.508 252.722 144.83 252.628 145.094 252.44C145.362 252.252 145.496 251.936 145.496 251.492C145.496 251.048 145.364 250.736 145.1 250.556C144.836 250.372 144.516 250.28 144.14 250.28H143.108V252.722ZM149.686 254.876C149.698 255.1 149.758 255.3 149.866 255.476C149.974 255.652 150.13 255.79 150.334 255.89C150.542 255.99 150.79 256.04 151.078 256.04C151.338 256.04 151.566 256.008 151.762 255.944C151.962 255.88 152.13 255.802 152.266 255.71C152.406 255.614 152.51 255.522 152.578 255.434L153.208 256.37C153.096 256.51 152.946 256.64 152.758 256.76C152.574 256.876 152.338 256.968 152.05 257.036C151.766 257.108 151.41 257.144 150.982 257.144C150.442 257.144 149.968 257.038 149.56 256.826C149.152 256.614 148.834 256.308 148.606 255.908C148.378 255.508 148.264 255.032 148.264 254.48C148.264 254 148.366 253.568 148.57 253.184C148.774 252.796 149.07 252.49 149.458 252.266C149.85 252.042 150.32 251.93 150.868 251.93C151.384 251.93 151.83 252.03 152.206 252.23C152.586 252.426 152.88 252.714 153.088 253.094C153.296 253.474 153.4 253.938 153.4 254.486C153.4 254.518 153.398 254.584 153.394 254.684C153.394 254.78 153.39 254.844 153.382 254.876H149.686ZM151.972 253.934C151.968 253.806 151.928 253.668 151.852 253.52C151.78 253.372 151.666 253.246 151.51 253.142C151.354 253.038 151.146 252.986 150.886 252.986C150.626 252.986 150.412 253.036 150.244 253.136C150.08 253.236 149.956 253.36 149.872 253.508C149.788 253.652 149.74 253.794 149.728 253.934H151.972ZM156.961 255.932C157.221 255.932 157.433 255.888 157.597 255.8C157.761 255.712 157.869 255.646 157.921 255.602L158.629 256.652C158.573 256.696 158.469 256.758 158.317 256.838C158.165 256.918 157.971 256.988 157.735 257.048C157.503 257.112 157.237 257.144 156.937 257.144C156.417 257.144 155.951 257.04 155.539 256.832C155.127 256.62 154.801 256.32 154.561 255.932C154.325 255.54 154.207 255.074 154.207 254.534C154.207 253.99 154.325 253.524 154.561 253.136C154.801 252.748 155.127 252.45 155.539 252.242C155.951 252.034 156.417 251.93 156.937 251.93C157.233 251.93 157.495 251.962 157.723 252.026C157.955 252.09 158.149 252.164 158.305 252.248C158.461 252.328 158.569 252.394 158.629 252.446L157.903 253.502C157.875 253.47 157.821 253.426 157.741 253.37C157.661 253.314 157.555 253.262 157.423 253.214C157.295 253.166 157.141 253.142 156.961 253.142C156.741 253.142 156.531 253.2 156.331 253.316C156.135 253.432 155.975 253.594 155.851 253.802C155.727 254.01 155.665 254.254 155.665 254.534C155.665 254.814 155.727 255.06 155.851 255.272C155.975 255.48 156.135 255.642 156.331 255.758C156.531 255.874 156.741 255.932 156.961 255.932ZM161.904 257.144C161.38 257.144 160.912 257.032 160.5 256.808C160.092 256.584 159.772 256.278 159.54 255.89C159.308 255.498 159.192 255.052 159.192 254.552C159.192 254.052 159.308 253.606 159.54 253.214C159.772 252.818 160.092 252.506 160.5 252.278C160.912 252.046 161.38 251.93 161.904 251.93C162.432 251.93 162.898 252.046 163.302 252.278C163.706 252.506 164.022 252.818 164.25 253.214C164.478 253.606 164.592 254.052 164.592 254.552C164.592 255.052 164.478 255.498 164.25 255.89C164.022 256.278 163.706 256.584 163.302 256.808C162.898 257.032 162.432 257.144 161.904 257.144ZM161.904 255.878C162.156 255.878 162.374 255.822 162.558 255.71C162.746 255.594 162.89 255.436 162.99 255.236C163.094 255.032 163.146 254.802 163.146 254.546C163.146 254.29 163.094 254.06 162.99 253.856C162.89 253.652 162.746 253.492 162.558 253.376C162.374 253.256 162.156 253.196 161.904 253.196C161.652 253.196 161.432 253.256 161.244 253.376C161.06 253.492 160.916 253.652 160.812 253.856C160.708 254.06 160.656 254.29 160.656 254.546C160.656 254.802 160.708 255.032 160.812 255.236C160.916 255.436 161.06 255.594 161.244 255.71C161.432 255.822 161.652 255.878 161.904 255.878ZM168.111 259.634C167.751 259.634 167.405 259.6 167.073 259.532C166.745 259.464 166.447 259.358 166.179 259.214C165.911 259.07 165.687 258.882 165.507 258.65L166.431 257.714C166.515 257.822 166.623 257.93 166.755 258.038C166.891 258.15 167.063 258.242 167.271 258.314C167.479 258.39 167.739 258.428 168.051 258.428C168.347 258.428 168.601 258.37 168.812 258.254C169.029 258.142 169.195 257.982 169.311 257.774C169.431 257.566 169.491 257.324 169.491 257.048V256.91H170.985V257.138C170.985 257.682 170.857 258.14 170.601 258.512C170.345 258.884 170.001 259.164 169.569 259.352C169.137 259.54 168.651 259.634 168.111 259.634ZM169.491 257V256.142C169.455 256.23 169.363 256.354 169.215 256.514C169.067 256.674 168.867 256.82 168.615 256.952C168.367 257.08 168.075 257.144 167.739 257.144C167.267 257.144 166.849 257.032 166.485 256.808C166.121 256.58 165.835 256.27 165.627 255.878C165.423 255.482 165.321 255.036 165.321 254.54C165.321 254.044 165.423 253.6 165.627 253.208C165.835 252.812 166.121 252.5 166.485 252.272C166.849 252.044 167.267 251.93 167.739 251.93C168.067 251.93 168.35 251.986 168.59 252.098C168.835 252.206 169.031 252.334 169.179 252.482C169.331 252.626 169.429 252.756 169.473 252.872V252.074H170.985V257H169.491ZM166.815 254.54C166.815 254.816 166.877 255.06 167.001 255.272C167.125 255.48 167.289 255.642 167.493 255.758C167.697 255.874 167.919 255.932 168.159 255.932C168.411 255.932 168.635 255.874 168.831 255.758C169.027 255.638 169.181 255.474 169.293 255.266C169.409 255.054 169.467 254.812 169.467 254.54C169.467 254.268 169.409 254.028 169.293 253.82C169.181 253.608 169.027 253.442 168.831 253.322C168.635 253.202 168.411 253.142 168.159 253.142C167.919 253.142 167.697 253.202 167.493 253.322C167.289 253.438 167.125 253.602 167.001 253.814C166.877 254.022 166.815 254.264 166.815 254.54ZM175.403 251.93C175.739 251.93 176.067 252 176.387 252.14C176.707 252.276 176.969 252.494 177.173 252.794C177.381 253.094 177.485 253.486 177.485 253.97V257H175.955V254.234C175.955 253.83 175.859 253.53 175.667 253.334C175.479 253.138 175.231 253.04 174.923 253.04C174.723 253.04 174.531 253.096 174.347 253.208C174.167 253.316 174.019 253.468 173.903 253.664C173.791 253.856 173.735 254.076 173.735 254.324V257H172.211V252.074H173.735V252.86C173.779 252.724 173.879 252.584 174.035 252.44C174.191 252.296 174.389 252.176 174.629 252.08C174.869 251.98 175.127 251.93 175.403 251.93ZM178.753 257V252.074H180.271V257H178.753ZM179.533 250.802C179.281 250.802 179.067 250.714 178.891 250.538C178.719 250.362 178.633 250.152 178.633 249.908C178.633 249.664 178.721 249.452 178.897 249.272C179.073 249.092 179.285 249.002 179.533 249.002C179.697 249.002 179.847 249.044 179.983 249.128C180.119 249.208 180.229 249.316 180.313 249.452C180.397 249.588 180.439 249.74 180.439 249.908C180.439 250.152 180.349 250.362 180.169 250.538C179.993 250.714 179.781 250.802 179.533 250.802ZM181.237 252.074H182.125V250.052H183.637V252.074H184.801V253.34H183.637V255.122C183.637 255.358 183.675 255.542 183.751 255.674C183.827 255.802 183.947 255.866 184.111 255.866C184.235 255.866 184.337 255.842 184.417 255.794C184.497 255.742 184.545 255.706 184.561 255.686L185.101 256.778C185.077 256.802 184.999 256.844 184.867 256.904C184.739 256.964 184.573 257.018 184.369 257.066C184.169 257.118 183.943 257.144 183.691 257.144C183.239 257.144 182.865 257.014 182.569 256.754C182.273 256.49 182.125 256.082 182.125 255.53V253.34H181.237V252.074ZM185.949 257V252.074H187.467V257H185.949ZM186.729 250.802C186.477 250.802 186.263 250.714 186.087 250.538C185.915 250.362 185.829 250.152 185.829 249.908C185.829 249.664 185.917 249.452 186.093 249.272C186.269 249.092 186.481 249.002 186.729 249.002C186.893 249.002 187.043 249.044 187.179 249.128C187.315 249.208 187.425 249.316 187.509 249.452C187.593 249.588 187.635 249.74 187.635 249.908C187.635 250.152 187.545 250.362 187.365 250.538C187.189 250.714 186.977 250.802 186.729 250.802ZM191.271 257.144C190.747 257.144 190.279 257.032 189.867 256.808C189.459 256.584 189.139 256.278 188.907 255.89C188.675 255.498 188.559 255.052 188.559 254.552C188.559 254.052 188.675 253.606 188.907 253.214C189.139 252.818 189.459 252.506 189.867 252.278C190.279 252.046 190.747 251.93 191.271 251.93C191.799 251.93 192.265 252.046 192.669 252.278C193.073 252.506 193.389 252.818 193.617 253.214C193.845 253.606 193.959 254.052 193.959 254.552C193.959 255.052 193.845 255.498 193.617 255.89C193.389 256.278 193.073 256.584 192.669 256.808C192.265 257.032 191.799 257.144 191.271 257.144ZM191.271 255.878C191.523 255.878 191.741 255.822 191.925 255.71C192.113 255.594 192.257 255.436 192.357 255.236C192.461 255.032 192.513 254.802 192.513 254.546C192.513 254.29 192.461 254.06 192.357 253.856C192.257 253.652 192.113 253.492 191.925 253.376C191.741 253.256 191.523 253.196 191.271 253.196C191.019 253.196 190.799 253.256 190.611 253.376C190.427 253.492 190.283 253.652 190.179 253.856C190.075 254.06 190.023 254.29 190.023 254.546C190.023 254.802 190.075 255.032 190.179 255.236C190.283 255.436 190.427 255.594 190.611 255.71C190.799 255.822 191.019 255.878 191.271 255.878ZM198.126 251.93C198.462 251.93 198.79 252 199.11 252.14C199.43 252.276 199.692 252.494 199.896 252.794C200.104 253.094 200.208 253.486 200.208 253.97V257H198.678V254.234C198.678 253.83 198.582 253.53 198.39 253.334C198.202 253.138 197.954 253.04 197.646 253.04C197.446 253.04 197.254 253.096 197.07 253.208C196.89 253.316 196.742 253.468 196.626 253.664C196.514 253.856 196.458 254.076 196.458 254.324V257H194.934V252.074H196.458V252.86C196.502 252.724 196.602 252.584 196.758 252.44C196.914 252.296 197.112 252.176 197.352 252.08C197.592 251.98 197.85 251.93 198.126 251.93ZM207.233 248.936C207.709 248.936 208.123 248.99 208.475 249.098C208.831 249.202 209.113 249.314 209.321 249.434C209.533 249.554 209.661 249.632 209.705 249.668L208.973 250.886C208.909 250.834 208.799 250.762 208.643 250.67C208.491 250.574 208.307 250.49 208.091 250.418C207.875 250.342 207.641 250.304 207.389 250.304C207.025 250.304 206.733 250.374 206.513 250.514C206.297 250.65 206.189 250.848 206.189 251.108C206.189 251.284 206.247 251.442 206.363 251.582C206.479 251.718 206.649 251.846 206.873 251.966C207.101 252.086 207.379 252.212 207.707 252.344C207.995 252.456 208.269 252.586 208.529 252.734C208.793 252.882 209.027 253.056 209.231 253.256C209.439 253.456 209.603 253.688 209.723 253.952C209.847 254.216 209.909 254.518 209.909 254.858C209.909 255.238 209.831 255.57 209.675 255.854C209.523 256.138 209.311 256.376 209.039 256.568C208.771 256.76 208.463 256.904 208.115 257C207.767 257.096 207.401 257.144 207.017 257.144C206.497 257.144 206.029 257.084 205.613 256.964C205.201 256.84 204.867 256.708 204.611 256.568C204.355 256.428 204.205 256.338 204.161 256.298L204.929 255.032C204.977 255.068 205.067 255.126 205.199 255.206C205.335 255.286 205.499 255.368 205.691 255.452C205.887 255.536 206.099 255.608 206.327 255.668C206.559 255.728 206.795 255.758 207.035 255.758C207.467 255.758 207.793 255.668 208.013 255.488C208.233 255.308 208.343 255.074 208.343 254.786C208.343 254.57 208.273 254.38 208.133 254.216C207.993 254.052 207.795 253.902 207.539 253.766C207.287 253.626 206.985 253.484 206.633 253.34C206.281 253.192 205.953 253.02 205.649 252.824C205.349 252.624 205.107 252.38 204.923 252.092C204.739 251.8 204.647 251.442 204.647 251.018C204.647 250.598 204.765 250.232 205.001 249.92C205.241 249.608 205.557 249.366 205.949 249.194C206.345 249.022 206.773 248.936 207.233 248.936ZM213.388 255.662L214.846 252.074H216.352L212.986 259.496H211.456L212.59 257L210.544 252.074H212.068L213.388 255.662ZM219.071 251.93C219.367 251.93 219.641 251.958 219.893 252.014C220.145 252.066 220.357 252.126 220.529 252.194C220.705 252.262 220.821 252.32 220.877 252.368L220.355 253.286C220.275 253.222 220.131 253.146 219.923 253.058C219.719 252.97 219.491 252.926 219.239 252.926C219.011 252.926 218.819 252.966 218.663 253.046C218.507 253.122 218.429 253.238 218.429 253.394C218.429 253.55 218.513 253.674 218.681 253.766C218.849 253.858 219.083 253.938 219.383 254.006C219.635 254.058 219.883 254.138 220.127 254.246C220.371 254.35 220.573 254.502 220.733 254.702C220.893 254.898 220.973 255.16 220.973 255.488C220.973 255.812 220.903 256.082 220.763 256.298C220.627 256.51 220.445 256.678 220.217 256.802C219.989 256.926 219.739 257.014 219.467 257.066C219.195 257.118 218.925 257.144 218.657 257.144C218.309 257.144 218.003 257.11 217.739 257.042C217.475 256.978 217.257 256.904 217.085 256.82C216.917 256.732 216.797 256.658 216.725 256.598L217.247 255.578C217.351 255.67 217.521 255.772 217.757 255.884C217.997 255.992 218.255 256.046 218.531 256.046C218.819 256.046 219.045 255.996 219.209 255.896C219.377 255.796 219.461 255.662 219.461 255.494C219.461 255.37 219.421 255.27 219.341 255.194C219.261 255.114 219.151 255.048 219.011 254.996C218.871 254.944 218.707 254.898 218.519 254.858C218.347 254.822 218.171 254.77 217.991 254.702C217.811 254.63 217.643 254.536 217.487 254.42C217.331 254.304 217.205 254.16 217.109 253.988C217.013 253.812 216.965 253.602 216.965 253.358C216.965 253.046 217.065 252.786 217.265 252.578C217.465 252.366 217.725 252.206 218.045 252.098C218.365 251.986 218.707 251.93 219.071 251.93ZM221.538 252.074H222.426V250.052H223.938V252.074H225.102V253.34H223.938V255.122C223.938 255.358 223.976 255.542 224.052 255.674C224.128 255.802 224.248 255.866 224.412 255.866C224.536 255.866 224.638 255.842 224.718 255.794C224.798 255.742 224.846 255.706 224.862 255.686L225.402 256.778C225.378 256.802 225.3 256.844 225.168 256.904C225.04 256.964 224.874 257.018 224.67 257.066C224.47 257.118 224.244 257.144 223.992 257.144C223.54 257.144 223.166 257.014 222.87 256.754C222.574 256.49 222.426 256.082 222.426 255.53V253.34H221.538V252.074ZM227.299 254.876C227.311 255.1 227.371 255.3 227.479 255.476C227.587 255.652 227.743 255.79 227.947 255.89C228.155 255.99 228.403 256.04 228.691 256.04C228.951 256.04 229.179 256.008 229.375 255.944C229.575 255.88 229.743 255.802 229.879 255.71C230.019 255.614 230.123 255.522 230.191 255.434L230.821 256.37C230.709 256.51 230.559 256.64 230.371 256.76C230.187 256.876 229.951 256.968 229.663 257.036C229.379 257.108 229.023 257.144 228.595 257.144C228.055 257.144 227.581 257.038 227.173 256.826C226.765 256.614 226.447 256.308 226.219 255.908C225.991 255.508 225.877 255.032 225.877 254.48C225.877 254 225.979 253.568 226.183 253.184C226.387 252.796 226.683 252.49 227.071 252.266C227.463 252.042 227.933 251.93 228.481 251.93C228.997 251.93 229.443 252.03 229.819 252.23C230.199 252.426 230.493 252.714 230.701 253.094C230.909 253.474 231.013 253.938 231.013 254.486C231.013 254.518 231.011 254.584 231.007 254.684C231.007 254.78 231.003 254.844 230.995 254.876H227.299ZM229.585 253.934C229.581 253.806 229.541 253.668 229.465 253.52C229.393 253.372 229.279 253.246 229.123 253.142C228.967 253.038 228.759 252.986 228.499 252.986C228.239 252.986 228.025 253.036 227.857 253.136C227.693 253.236 227.569 253.36 227.485 253.508C227.401 253.652 227.353 253.794 227.341 253.934H229.585ZM238.48 251.93C238.848 251.93 239.168 252.008 239.44 252.164C239.716 252.32 239.93 252.56 240.082 252.884C240.238 253.204 240.316 253.616 240.316 254.12V257H238.816V254.366C238.816 253.95 238.754 253.626 238.63 253.394C238.51 253.162 238.28 253.046 237.94 253.046C237.748 253.046 237.572 253.098 237.412 253.202C237.252 253.302 237.124 253.45 237.028 253.646C236.936 253.842 236.89 254.082 236.89 254.366V257H235.486V254.366C235.486 253.95 235.416 253.626 235.276 253.394C235.136 253.162 234.914 253.046 234.61 253.046C234.414 253.046 234.236 253.096 234.076 253.196C233.92 253.296 233.796 253.444 233.704 253.64C233.616 253.832 233.572 254.074 233.572 254.366V257H232.06V252.074H233.572V252.794C233.616 252.67 233.716 252.542 233.872 252.41C234.032 252.278 234.23 252.166 234.466 252.074C234.702 251.978 234.956 251.93 235.228 251.93C235.524 251.93 235.77 251.98 235.966 252.08C236.162 252.18 236.32 252.308 236.44 252.464C236.564 252.616 236.658 252.776 236.722 252.944C236.778 252.788 236.888 252.632 237.052 252.476C237.216 252.32 237.422 252.19 237.67 252.086C237.918 251.982 238.188 251.93 238.48 251.93ZM244.658 249.08H249.062V250.406H246.158V252.368H248.852V253.688H246.158V257H244.658V249.08ZM252.384 257.144C251.86 257.144 251.392 257.032 250.98 256.808C250.572 256.584 250.252 256.278 250.02 255.89C249.788 255.498 249.672 255.052 249.672 254.552C249.672 254.052 249.788 253.606 250.02 253.214C250.252 252.818 250.572 252.506 250.98 252.278C251.392 252.046 251.86 251.93 252.384 251.93C252.912 251.93 253.378 252.046 253.782 252.278C254.186 252.506 254.502 252.818 254.73 253.214C254.958 253.606 255.072 254.052 255.072 254.552C255.072 255.052 254.958 255.498 254.73 255.89C254.502 256.278 254.186 256.584 253.782 256.808C253.378 257.032 252.912 257.144 252.384 257.144ZM252.384 255.878C252.636 255.878 252.854 255.822 253.038 255.71C253.226 255.594 253.37 255.436 253.47 255.236C253.574 255.032 253.626 254.802 253.626 254.546C253.626 254.29 253.574 254.06 253.47 253.856C253.37 253.652 253.226 253.492 253.038 253.376C252.854 253.256 252.636 253.196 252.384 253.196C252.132 253.196 251.912 253.256 251.724 253.376C251.54 253.492 251.396 253.652 251.292 253.856C251.188 254.06 251.136 254.29 251.136 254.546C251.136 254.802 251.188 255.032 251.292 255.236C251.396 255.436 251.54 255.594 251.724 255.71C251.912 255.822 252.132 255.878 252.384 255.878ZM257.517 257H255.993V252.074H257.517V252.872H257.487C257.515 252.776 257.591 252.654 257.715 252.506C257.843 252.358 258.019 252.226 258.243 252.11C258.467 251.99 258.737 251.93 259.053 251.93C259.281 251.93 259.487 251.964 259.671 252.032C259.859 252.096 259.993 252.16 260.073 252.224L259.473 253.472C259.421 253.408 259.323 253.342 259.179 253.274C259.039 253.206 258.863 253.172 258.651 253.172C258.399 253.172 258.189 253.242 258.021 253.382C257.853 253.518 257.727 253.686 257.643 253.886C257.559 254.082 257.517 254.266 257.517 254.438V257ZM93.0933 260.08H94.5993L97.6473 268H96.0513L95.4333 266.29H92.2653L91.6353 268H90.0333L93.0933 260.08ZM92.7573 264.964H94.9413L93.8553 261.892H93.8373L92.7573 264.964ZM97.9406 263.074H98.8286V261.052H100.341V263.074H101.505V264.34H100.341V266.122C100.341 266.358 100.379 266.542 100.455 266.674C100.531 266.802 100.651 266.866 100.815 266.866C100.939 266.866 101.041 266.842 101.121 266.794C101.201 266.742 101.249 266.706 101.265 266.686L101.805 267.778C101.781 267.802 101.703 267.844 101.571 267.904C101.443 267.964 101.277 268.018 101.073 268.066C100.873 268.118 100.647 268.144 100.395 268.144C99.9426 268.144 99.5686 268.014 99.2726 267.754C98.9766 267.49 98.8286 267.082 98.8286 266.53V264.34H97.9406V263.074ZM104.986 268.144C104.462 268.144 103.994 268.032 103.582 267.808C103.174 267.584 102.854 267.278 102.622 266.89C102.39 266.498 102.274 266.052 102.274 265.552C102.274 265.052 102.39 264.606 102.622 264.214C102.854 263.818 103.174 263.506 103.582 263.278C103.994 263.046 104.462 262.93 104.986 262.93C105.514 262.93 105.98 263.046 106.384 263.278C106.788 263.506 107.104 263.818 107.332 264.214C107.56 264.606 107.674 265.052 107.674 265.552C107.674 266.052 107.56 266.498 107.332 266.89C107.104 267.278 106.788 267.584 106.384 267.808C105.98 268.032 105.514 268.144 104.986 268.144ZM104.986 266.878C105.238 266.878 105.456 266.822 105.64 266.71C105.828 266.594 105.972 266.436 106.072 266.236C106.176 266.032 106.228 265.802 106.228 265.546C106.228 265.29 106.176 265.06 106.072 264.856C105.972 264.652 105.828 264.492 105.64 264.376C105.456 264.256 105.238 264.196 104.986 264.196C104.734 264.196 104.514 264.256 104.326 264.376C104.142 264.492 103.998 264.652 103.894 264.856C103.79 265.06 103.738 265.29 103.738 265.546C103.738 265.802 103.79 266.032 103.894 266.236C103.998 266.436 104.142 266.594 104.326 266.71C104.514 266.822 104.734 266.878 104.986 266.878ZM110.209 270.496H108.697V263.074H110.227V263.872C110.275 263.756 110.379 263.624 110.539 263.476C110.699 263.328 110.907 263.2 111.163 263.092C111.423 262.984 111.719 262.93 112.051 262.93C112.519 262.93 112.927 263.044 113.275 263.272C113.623 263.5 113.891 263.812 114.079 264.208C114.271 264.6 114.367 265.044 114.367 265.54C114.367 266.036 114.267 266.482 114.067 266.878C113.867 267.27 113.589 267.58 113.233 267.808C112.877 268.032 112.463 268.144 111.991 268.144C111.635 268.144 111.329 268.08 111.073 267.952C110.817 267.824 110.617 267.68 110.473 267.52C110.329 267.36 110.241 267.234 110.209 267.142V270.496ZM112.873 265.54C112.873 265.264 112.813 265.022 112.693 264.814C112.577 264.602 112.421 264.438 112.225 264.322C112.029 264.202 111.811 264.142 111.571 264.142C111.319 264.142 111.091 264.202 110.887 264.322C110.683 264.442 110.521 264.608 110.401 264.82C110.285 265.028 110.227 265.268 110.227 265.54C110.227 265.812 110.285 266.054 110.401 266.266C110.521 266.474 110.683 266.638 110.887 266.758C111.091 266.874 111.319 266.932 111.571 266.932C111.811 266.932 112.029 266.874 112.225 266.758C112.421 266.642 112.577 266.48 112.693 266.272C112.813 266.06 112.873 265.816 112.873 265.54ZM115.437 268V263.074H116.955V268H115.437ZM116.217 261.802C115.965 261.802 115.751 261.714 115.575 261.538C115.403 261.362 115.317 261.152 115.317 260.908C115.317 260.664 115.405 260.452 115.581 260.272C115.757 260.092 115.969 260.002 116.217 260.002C116.381 260.002 116.531 260.044 116.667 260.128C116.803 260.208 116.913 260.316 116.997 260.452C117.081 260.588 117.123 260.74 117.123 260.908C117.123 261.152 117.033 261.362 116.853 261.538C116.677 261.714 116.465 261.802 116.217 261.802ZM120.879 266.932C121.139 266.932 121.351 266.888 121.515 266.8C121.679 266.712 121.787 266.646 121.839 266.602L122.547 267.652C122.491 267.696 122.387 267.758 122.235 267.838C122.083 267.918 121.889 267.988 121.653 268.048C121.421 268.112 121.155 268.144 120.855 268.144C120.335 268.144 119.869 268.04 119.457 267.832C119.045 267.62 118.719 267.32 118.479 266.932C118.243 266.54 118.125 266.074 118.125 265.534C118.125 264.99 118.243 264.524 118.479 264.136C118.719 263.748 119.045 263.45 119.457 263.242C119.869 263.034 120.335 262.93 120.855 262.93C121.151 262.93 121.413 262.962 121.641 263.026C121.873 263.09 122.067 263.164 122.223 263.248C122.379 263.328 122.487 263.394 122.547 263.446L121.821 264.502C121.793 264.47 121.739 264.426 121.659 264.37C121.579 264.314 121.473 264.262 121.341 264.214C121.213 264.166 121.059 264.142 120.879 264.142C120.659 264.142 120.449 264.2 120.249 264.316C120.053 264.432 119.893 264.594 119.769 264.802C119.645 265.01 119.583 265.254 119.583 265.534C119.583 265.814 119.645 266.06 119.769 266.272C119.893 266.48 120.053 266.642 120.249 266.758C120.449 266.874 120.659 266.932 120.879 266.932ZM126.521 260.08H128.705C129.549 260.08 130.245 260.25 130.793 260.59C131.345 260.926 131.757 261.392 132.029 261.988C132.301 262.584 132.437 263.266 132.437 264.034C132.437 264.806 132.301 265.49 132.029 266.086C131.757 266.682 131.345 267.15 130.793 267.49C130.245 267.83 129.549 268 128.705 268H126.521V260.08ZM128.009 261.418V266.662H128.573C129.089 266.662 129.513 266.55 129.845 266.326C130.181 266.098 130.431 265.786 130.595 265.39C130.763 264.994 130.847 264.546 130.847 264.046C130.851 263.542 130.771 263.092 130.607 262.696C130.443 262.3 130.191 261.988 129.851 261.76C129.515 261.532 129.089 261.418 128.573 261.418H128.009ZM134.709 265.876C134.721 266.1 134.781 266.3 134.889 266.476C134.997 266.652 135.153 266.79 135.357 266.89C135.565 266.99 135.813 267.04 136.101 267.04C136.361 267.04 136.589 267.008 136.785 266.944C136.985 266.88 137.153 266.802 137.289 266.71C137.429 266.614 137.533 266.522 137.601 266.434L138.231 267.37C138.119 267.51 137.969 267.64 137.781 267.76C137.597 267.876 137.361 267.968 137.073 268.036C136.789 268.108 136.433 268.144 136.005 268.144C135.465 268.144 134.991 268.038 134.583 267.826C134.175 267.614 133.857 267.308 133.629 266.908C133.401 266.508 133.287 266.032 133.287 265.48C133.287 265 133.389 264.568 133.593 264.184C133.797 263.796 134.093 263.49 134.481 263.266C134.873 263.042 135.343 262.93 135.891 262.93C136.407 262.93 136.853 263.03 137.229 263.23C137.609 263.426 137.903 263.714 138.111 264.094C138.319 264.474 138.423 264.938 138.423 265.486C138.423 265.518 138.421 265.584 138.417 265.684C138.417 265.78 138.413 265.844 138.405 265.876H134.709ZM136.995 264.934C136.991 264.806 136.951 264.668 136.875 264.52C136.803 264.372 136.689 264.246 136.533 264.142C136.377 264.038 136.169 263.986 135.909 263.986C135.649 263.986 135.435 264.036 135.267 264.136C135.103 264.236 134.979 264.36 134.895 264.508C134.811 264.652 134.763 264.794 134.751 264.934H136.995ZM140.869 268H139.345V263.074H140.869V263.872H140.839C140.867 263.776 140.943 263.654 141.067 263.506C141.195 263.358 141.371 263.226 141.595 263.11C141.819 262.99 142.089 262.93 142.405 262.93C142.633 262.93 142.839 262.964 143.023 263.032C143.211 263.096 143.345 263.16 143.425 263.224L142.825 264.472C142.773 264.408 142.675 264.342 142.531 264.274C142.391 264.206 142.215 264.172 142.003 264.172C141.751 264.172 141.541 264.242 141.373 264.382C141.205 264.518 141.079 264.686 140.995 264.886C140.911 265.082 140.869 265.266 140.869 265.438V268ZM150.437 262.93C150.805 262.93 151.125 263.008 151.397 263.164C151.673 263.32 151.887 263.56 152.039 263.884C152.195 264.204 152.273 264.616 152.273 265.12V268H150.773V265.366C150.773 264.95 150.711 264.626 150.587 264.394C150.467 264.162 150.237 264.046 149.897 264.046C149.705 264.046 149.529 264.098 149.369 264.202C149.209 264.302 149.081 264.45 148.985 264.646C148.893 264.842 148.847 265.082 148.847 265.366V268H147.443V265.366C147.443 264.95 147.373 264.626 147.233 264.394C147.093 264.162 146.871 264.046 146.567 264.046C146.371 264.046 146.193 264.096 146.033 264.196C145.877 264.296 145.753 264.444 145.661 264.64C145.573 264.832 145.529 265.074 145.529 265.366V268H144.017V263.074H145.529V263.794C145.573 263.67 145.673 263.542 145.829 263.41C145.989 263.278 146.187 263.166 146.423 263.074C146.659 262.978 146.913 262.93 147.185 262.93C147.481 262.93 147.727 262.98 147.923 263.08C148.119 263.18 148.277 263.308 148.397 263.464C148.521 263.616 148.615 263.776 148.679 263.944C148.735 263.788 148.845 263.632 149.009 263.476C149.173 263.32 149.379 263.19 149.627 263.086C149.875 262.982 150.145 262.93 150.437 262.93ZM157.35 268V267.142C157.314 267.23 157.222 267.354 157.074 267.514C156.926 267.674 156.726 267.82 156.474 267.952C156.226 268.08 155.934 268.144 155.598 268.144C155.126 268.144 154.708 268.032 154.344 267.808C153.98 267.58 153.694 267.27 153.486 266.878C153.282 266.482 153.18 266.036 153.18 265.54C153.18 265.044 153.282 264.6 153.486 264.208C153.694 263.812 153.98 263.5 154.344 263.272C154.708 263.044 155.126 262.93 155.598 262.93C155.926 262.93 156.21 262.986 156.45 263.098C156.694 263.206 156.89 263.334 157.038 263.482C157.19 263.626 157.288 263.756 157.332 263.872V263.074H158.844V268H157.35ZM154.674 265.54C154.674 265.816 154.736 266.06 154.86 266.272C154.984 266.48 155.148 266.642 155.352 266.758C155.556 266.874 155.778 266.932 156.018 266.932C156.27 266.932 156.494 266.874 156.69 266.758C156.886 266.638 157.04 266.474 157.152 266.266C157.268 266.054 157.326 265.812 157.326 265.54C157.326 265.268 157.268 265.028 157.152 264.82C157.04 264.608 156.886 264.442 156.69 264.322C156.494 264.202 156.27 264.142 156.018 264.142C155.778 264.142 155.556 264.202 155.352 264.322C155.148 264.438 154.984 264.602 154.86 264.814C154.736 265.022 154.674 265.264 154.674 265.54ZM159.675 263.074H160.563V261.052H162.075V263.074H163.239V264.34H162.075V266.122C162.075 266.358 162.113 266.542 162.189 266.674C162.265 266.802 162.385 266.866 162.549 266.866C162.673 266.866 162.775 266.842 162.855 266.794C162.935 266.742 162.983 266.706 162.999 266.686L163.539 267.778C163.515 267.802 163.437 267.844 163.305 267.904C163.177 267.964 163.011 268.018 162.807 268.066C162.607 268.118 162.381 268.144 162.129 268.144C161.677 268.144 161.303 268.014 161.007 267.754C160.711 267.49 160.563 267.082 160.563 266.53V264.34H159.675V263.074ZM164.386 268V263.074H165.904V268H164.386ZM165.166 261.802C164.914 261.802 164.7 261.714 164.524 261.538C164.352 261.362 164.266 261.152 164.266 260.908C164.266 260.664 164.354 260.452 164.53 260.272C164.706 260.092 164.918 260.002 165.166 260.002C165.33 260.002 165.48 260.044 165.616 260.128C165.752 260.208 165.862 260.316 165.946 260.452C166.03 260.588 166.072 260.74 166.072 260.908C166.072 261.152 165.982 261.362 165.802 261.538C165.626 261.714 165.414 261.802 165.166 261.802ZM166.87 263.074H167.758V261.052H169.27V263.074H170.434V264.34H169.27V266.122C169.27 266.358 169.308 266.542 169.384 266.674C169.46 266.802 169.58 266.866 169.744 266.866C169.868 266.866 169.97 266.842 170.05 266.794C170.13 266.742 170.178 266.706 170.194 266.686L170.734 267.778C170.71 267.802 170.632 267.844 170.5 267.904C170.372 267.964 170.206 268.018 170.002 268.066C169.802 268.118 169.576 268.144 169.324 268.144C168.872 268.144 168.498 268.014 168.202 267.754C167.906 267.49 167.758 267.082 167.758 266.53V264.34H166.87V263.074ZM171.581 268V263.074H173.099V268H171.581ZM172.361 261.802C172.109 261.802 171.895 261.714 171.719 261.538C171.547 261.362 171.461 261.152 171.461 260.908C171.461 260.664 171.549 260.452 171.725 260.272C171.901 260.092 172.113 260.002 172.361 260.002C172.525 260.002 172.675 260.044 172.811 260.128C172.947 260.208 173.057 260.316 173.141 260.452C173.225 260.588 173.267 260.74 173.267 260.908C173.267 261.152 173.177 261.362 172.997 261.538C172.821 261.714 172.609 261.802 172.361 261.802ZM176.556 262.93C176.852 262.93 177.126 262.958 177.378 263.014C177.63 263.066 177.842 263.126 178.014 263.194C178.19 263.262 178.306 263.32 178.362 263.368L177.84 264.286C177.76 264.222 177.616 264.146 177.408 264.058C177.204 263.97 176.976 263.926 176.724 263.926C176.496 263.926 176.304 263.966 176.148 264.046C175.992 264.122 175.914 264.238 175.914 264.394C175.914 264.55 175.998 264.674 176.166 264.766C176.334 264.858 176.568 264.938 176.868 265.006C177.12 265.058 177.368 265.138 177.612 265.246C177.856 265.35 178.058 265.502 178.218 265.702C178.378 265.898 178.458 266.16 178.458 266.488C178.458 266.812 178.388 267.082 178.248 267.298C178.112 267.51 177.93 267.678 177.702 267.802C177.474 267.926 177.224 268.014 176.952 268.066C176.68 268.118 176.41 268.144 176.142 268.144C175.794 268.144 175.488 268.11 175.224 268.042C174.96 267.978 174.742 267.904 174.57 267.82C174.402 267.732 174.282 267.658 174.21 267.598L174.732 266.578C174.836 266.67 175.006 266.772 175.242 266.884C175.482 266.992 175.74 267.046 176.016 267.046C176.304 267.046 176.53 266.996 176.694 266.896C176.862 266.796 176.946 266.662 176.946 266.494C176.946 266.37 176.906 266.27 176.826 266.194C176.746 266.114 176.636 266.048 176.496 265.996C176.356 265.944 176.192 265.898 176.004 265.858C175.832 265.822 175.656 265.77 175.476 265.702C175.296 265.63 175.128 265.536 174.972 265.42C174.816 265.304 174.69 265.16 174.594 264.988C174.498 264.812 174.45 264.602 174.45 264.358C174.45 264.046 174.55 263.786 174.75 263.578C174.95 263.366 175.21 263.206 175.53 263.098C175.85 262.986 176.192 262.93 176.556 262.93Z" fill="#A3DACD" fill-opacity="0.83"/>
<path d="M68.3098 152.32H85.7818V153.856H69.7738V167.344H85.3258V168.88H69.7738V182.464H85.7818V184H68.3098V152.32ZM101.002 183.04C102.538 183.04 103.762 182.808 104.674 182.344C105.586 181.864 106.138 181.544 106.33 181.384L107.266 182.728C107.17 182.808 106.834 183 106.258 183.304C105.682 183.608 104.922 183.896 103.978 184.168C103.05 184.44 101.994 184.576 100.81 184.576C99.4015 184.576 97.9855 184.2 96.5615 183.448C95.1535 182.68 93.9695 181.52 93.0095 179.968C92.0655 178.416 91.5935 176.472 91.5935 174.136C91.5935 171.784 92.0655 169.84 93.0095 168.304C93.9695 166.768 95.1535 165.624 96.5615 164.872C97.9855 164.104 99.4015 163.72 100.81 163.72C101.994 163.72 103.026 163.872 103.906 164.176C104.802 164.48 105.522 164.808 106.066 165.16C106.626 165.512 106.97 165.76 107.098 165.904L106.186 167.248C106.042 167.104 105.754 166.872 105.322 166.552C104.906 166.232 104.338 165.936 103.618 165.664C102.898 165.392 102.026 165.256 101.002 165.256C99.7695 165.256 98.5455 165.6 97.3295 166.288C96.1135 166.96 95.1055 167.96 94.3055 169.288C93.5215 170.6 93.1295 172.216 93.1295 174.136C93.1295 176.056 93.5215 177.68 94.3055 179.008C95.1055 180.336 96.1135 181.344 97.3295 182.032C98.5455 182.704 99.7695 183.04 101.002 183.04ZM111.383 164.296H126.599L113.159 182.464H126.335V184H110.231L123.671 165.832H111.383V164.296ZM131.493 174.016C131.493 175.568 131.781 177.04 132.357 178.432C132.933 179.808 133.813 180.928 134.997 181.792C136.181 182.656 137.677 183.088 139.485 183.088C140.941 183.088 142.133 182.84 143.061 182.344C144.005 181.848 144.741 181.272 145.269 180.616C145.813 179.944 146.189 179.36 146.397 178.864L147.813 179.824C147.173 180.864 146.461 181.744 145.677 182.464C144.893 183.168 143.989 183.696 142.965 184.048C141.957 184.4 140.773 184.576 139.413 184.576C137.349 184.576 135.605 184.096 134.181 183.136C132.757 182.16 131.677 180.864 130.941 179.248C130.221 177.616 129.861 175.832 129.861 173.896C129.861 171.976 130.229 170.248 130.965 168.712C131.717 167.176 132.797 165.96 134.205 165.064C135.629 164.168 137.341 163.72 139.341 163.72C141.117 163.72 142.661 164.136 143.973 164.968C145.301 165.784 146.333 166.904 147.069 168.328C147.805 169.752 148.173 171.376 148.173 173.2C148.173 173.344 148.165 173.488 148.149 173.632C148.133 173.76 148.125 173.888 148.125 174.016H131.493ZM146.469 172.48C146.437 171.44 146.197 170.36 145.749 169.24C145.317 168.12 144.589 167.176 143.565 166.408C142.541 165.624 141.133 165.232 139.341 165.232C137.453 165.232 135.957 165.608 134.853 166.36C133.765 167.112 132.973 168.048 132.477 169.168C131.997 170.288 131.709 171.392 131.613 172.48H146.469ZM174.211 163.72C175.651 163.72 176.843 164.048 177.787 164.704C178.747 165.344 179.459 166.32 179.923 167.632C180.403 168.944 180.643 170.608 180.643 172.624V184H179.107V173.248C179.107 170.464 178.731 168.448 177.979 167.2C177.243 165.936 175.947 165.304 174.091 165.304C173.179 165.304 172.251 165.568 171.307 166.096C170.379 166.608 169.595 167.448 168.955 168.616C168.331 169.768 168.019 171.312 168.019 173.248V184H166.483V173.248C166.483 170.464 165.995 168.448 165.019 167.2C164.059 165.936 162.835 165.304 161.347 165.304C160.419 165.304 159.499 165.552 158.587 166.048C157.675 166.544 156.915 167.376 156.307 168.544C155.715 169.696 155.419 171.264 155.419 173.248V184H153.883V164.296H155.419V167.488C155.579 166.992 155.923 166.456 156.451 165.88C156.995 165.288 157.707 164.784 158.587 164.368C159.483 163.936 160.515 163.72 161.683 163.72C162.899 163.72 163.907 164.024 164.707 164.632C165.523 165.224 166.147 165.92 166.579 166.72C167.011 167.52 167.259 168.224 167.323 168.832C167.563 168.032 167.987 167.24 168.595 166.456C169.219 165.672 170.003 165.024 170.947 164.512C171.907 163.984 172.995 163.72 174.211 163.72ZM203.967 184V179.632C203.871 180.08 203.495 180.704 202.839 181.504C202.199 182.288 201.303 183 200.151 183.64C198.999 184.264 197.631 184.576 196.047 184.576C194.303 184.576 192.671 184.176 191.151 183.376C189.647 182.576 188.431 181.4 187.503 179.848C186.575 178.296 186.111 176.4 186.111 174.16C186.111 171.92 186.575 170.024 187.503 168.472C188.431 166.92 189.647 165.744 191.151 164.944C192.671 164.128 194.303 163.72 196.047 163.72C197.631 163.72 198.999 164.032 200.151 164.656C201.319 165.264 202.231 165.96 202.887 166.744C203.559 167.528 203.919 168.176 203.967 168.688V164.296H205.455V184H203.967ZM187.647 174.16C187.647 176.016 188.047 177.608 188.847 178.936C189.647 180.264 190.679 181.28 191.943 181.984C193.207 182.688 194.527 183.04 195.903 183.04C197.423 183.04 198.783 182.68 199.983 181.96C201.183 181.24 202.127 180.216 202.815 178.888C203.519 177.56 203.871 175.984 203.871 174.16C203.871 172.336 203.519 170.76 202.815 169.432C202.127 168.104 201.183 167.08 199.983 166.36C198.783 165.624 197.423 165.256 195.903 165.256C194.527 165.256 193.207 165.616 191.943 166.336C190.679 167.04 189.647 168.056 188.847 169.384C188.047 170.712 187.647 172.304 187.647 174.16Z" fill="#85D3C0"/>
<path d="M113.095 219.112C115.495 219.112 117.511 218.792 119.143 218.152C120.791 217.512 121.935 216.896 122.575 216.304L123.271 217.648C122.583 218.288 121.359 218.936 119.599 219.592C117.855 220.248 115.735 220.576 113.239 220.576C110.903 220.576 108.751 220.152 106.783 219.304C104.831 218.456 103.127 217.288 101.671 215.8C100.231 214.296 99.1113 212.56 98.3113 210.592C97.5113 208.608 97.1113 206.48 97.1113 204.208C97.1113 201.936 97.5033 199.808 98.2873 197.824C99.0873 195.824 100.207 194.072 101.647 192.568C103.103 191.064 104.815 189.888 106.783 189.04C108.751 188.176 110.903 187.744 113.239 187.744C115.735 187.744 117.855 188.072 119.599 188.728C121.359 189.384 122.583 190.032 123.271 190.672L122.575 192.016C121.935 191.408 120.791 190.792 119.143 190.168C117.511 189.528 115.495 189.208 113.095 189.208C111.175 189.208 109.351 189.56 107.623 190.264C105.911 190.968 104.383 191.976 103.039 193.288C101.695 194.6 100.639 196.176 99.8713 198.016C99.1033 199.84 98.7193 201.88 98.7193 204.136C98.7193 206.408 99.1033 208.464 99.8713 210.304C100.639 212.144 101.695 213.72 103.039 215.032C104.383 216.344 105.911 217.352 107.623 218.056C109.351 218.76 111.175 219.112 113.095 219.112ZM144.756 220V215.632C144.66 216.08 144.284 216.704 143.628 217.504C142.988 218.288 142.092 219 140.94 219.64C139.788 220.264 138.42 220.576 136.836 220.576C135.092 220.576 133.46 220.176 131.94 219.376C130.436 218.576 129.22 217.4 128.292 215.848C127.364 214.296 126.9 212.4 126.9 210.16C126.9 207.92 127.364 206.024 128.292 204.472C129.22 202.92 130.436 201.744 131.94 200.944C133.46 200.128 135.092 199.72 136.836 199.72C138.42 199.72 139.788 200.032 140.94 200.656C142.108 201.264 143.02 201.96 143.676 202.744C144.348 203.528 144.708 204.176 144.756 204.688V200.296H146.244V220H144.756ZM128.436 210.16C128.436 212.016 128.836 213.608 129.636 214.936C130.436 216.264 131.468 217.28 132.732 217.984C133.996 218.688 135.316 219.04 136.692 219.04C138.212 219.04 139.572 218.68 140.772 217.96C141.972 217.24 142.916 216.216 143.604 214.888C144.308 213.56 144.66 211.984 144.66 210.16C144.66 208.336 144.308 206.76 143.604 205.432C142.916 204.104 141.972 203.08 140.772 202.36C139.572 201.624 138.212 201.256 136.692 201.256C135.316 201.256 133.996 201.616 132.732 202.336C131.468 203.04 130.436 204.056 129.636 205.384C128.836 206.712 128.436 208.304 128.436 210.16ZM154.567 220H153.079V200.296H154.567V203.992H154.447C154.495 203.56 154.775 203.008 155.287 202.336C155.815 201.664 156.527 201.064 157.423 200.536C158.335 199.992 159.383 199.72 160.567 199.72C161.495 199.72 162.279 199.832 162.919 200.056C163.559 200.28 163.991 200.504 164.215 200.728L163.471 202.096C163.247 201.92 162.855 201.736 162.295 201.544C161.735 201.352 161.055 201.256 160.255 201.256C159.135 201.256 158.143 201.656 157.279 202.456C156.431 203.256 155.767 204.208 155.287 205.312C154.807 206.416 154.567 207.424 154.567 208.336V220ZM167.251 210.016C167.251 211.568 167.539 213.04 168.115 214.432C168.691 215.808 169.571 216.928 170.755 217.792C171.939 218.656 173.435 219.088 175.243 219.088C176.699 219.088 177.891 218.84 178.819 218.344C179.763 217.848 180.499 217.272 181.027 216.616C181.571 215.944 181.947 215.36 182.155 214.864L183.571 215.824C182.931 216.864 182.219 217.744 181.435 218.464C180.651 219.168 179.747 219.696 178.723 220.048C177.715 220.4 176.531 220.576 175.171 220.576C173.107 220.576 171.363 220.096 169.939 219.136C168.515 218.16 167.435 216.864 166.699 215.248C165.979 213.616 165.619 211.832 165.619 209.896C165.619 207.976 165.987 206.248 166.723 204.712C167.475 203.176 168.555 201.96 169.963 201.064C171.387 200.168 173.099 199.72 175.099 199.72C176.875 199.72 178.419 200.136 179.731 200.968C181.059 201.784 182.091 202.904 182.827 204.328C183.563 205.752 183.931 207.376 183.931 209.2C183.931 209.344 183.923 209.488 183.907 209.632C183.891 209.76 183.883 209.888 183.883 210.016H167.251ZM182.227 208.48C182.195 207.44 181.955 206.36 181.507 205.24C181.075 204.12 180.347 203.176 179.323 202.408C178.299 201.624 176.891 201.232 175.099 201.232C173.211 201.232 171.715 201.608 170.611 202.36C169.523 203.112 168.731 204.048 168.235 205.168C167.755 206.288 167.467 207.392 167.371 208.48H182.227Z" fill="#85D3C0"/>
</svg>
